<svg xmlns="http://www.w3.org/2000/svg" viewBox="280 220 500 540">
  <defs>
    <radialGradient id="apricotBlush" cx="0.42" cy="0.42" r="0.65">
      <stop offset="0%" stop-color="#E64A2C"/>
      <stop offset="35%" stop-color="#F26B33"/>
      <stop offset="70%" stop-color="#F7A23A"/>
      <stop offset="100%" stop-color="#F4C04A"/>
    </radialGradient>
    <linearGradient id="leafGrad" x1="0" y1="0" x2="1" y2="1">
      <stop offset="0%" stop-color="#9CC36B"/>
      <stop offset="100%" stop-color="#4A7A2C"/>
    </linearGradient>
  </defs>

  <g transform="translate(192, 192) scale(4.57)">
    <path d="M 70 24 C 52 22, 32 32, 24 50 C 18 64, 20 84, 30 100 C 40 116, 60 122, 78 120 C 96 118, 112 108, 118 92 C 124 76, 122 56, 112 42 C 102 30, 86 24, 70 24 Z" fill="url(#apricotBlush)"/>
    <path d="M 76 26 C 78 18, 76 12, 72 10" stroke="#6B4423" stroke-width="3.5" stroke-linecap="round" fill="none"/>
    <circle cx="72" cy="10" r="2" fill="#6B4423"/>
    <path d="M72 18 C 56 4, 32 6, 22 18 C 32 30, 56 30, 72 24 Z" fill="url(#leafGrad)"/>
    <path d="M72 20 C 56 18, 38 20, 24 22" stroke="#2F5418" stroke-width="1.1" stroke-linecap="round" fill="none" opacity="0.75"/>
    <path d="M62 19 C 60 15, 56 13, 54 13" stroke="#2F5418" stroke-width="0.7" fill="none" opacity="0.55"/>
    <path d="M52 20 C 50 16, 46 14, 44 14" stroke="#2F5418" stroke-width="0.7" fill="none" opacity="0.55"/>
    <path d="M42 20 C 40 17, 36 15, 34 15" stroke="#2F5418" stroke-width="0.7" fill="none" opacity="0.55"/>
    <path d="M62 22 C 60 26, 56 28, 54 28" stroke="#2F5418" stroke-width="0.7" fill="none" opacity="0.5"/>
    <path d="M50 22 C 48 26, 44 28, 42 28" stroke="#2F5418" stroke-width="0.7" fill="none" opacity="0.5"/>
  </g>
</svg>
